<?xml version="1.0" encoding="UTF-8"?>
<svg id="_레이어_1" data-name="레이어_1" xmlns="http://www.w3.org/2000/svg" version="1.1" viewBox="0 0 46.18 9.52">
  <!-- Generator: Adobe Illustrator 30.5.1, SVG Export Plug-In . SVG Version: 2.1.4 Build 3)  -->
  <defs>
    <style>
      .st0 {
        fill: #b5d348;
      }

      .st1 {
        fill: #040000;
      }

      .st2 {
        fill: #fff;
      }

      .st3 {
        fill: #e73274;
      }
    </style>
  </defs>
  <path class="st1" d="M12.41,6.7l-2.35.02c-.08,0-.13-.07-.13-.14v-.44c0-.08.05-.13.13-.13h2.16c.29,0,.5-.23.48-.51-.01-.26-.19-.47-.45-.48l-1.38-.02c-.62-.06-.98-.61-.98-1.2,0-.65.44-1.18,1.11-1.18h2.09c.07,0,.12.07.12.14v.43c0,.11-.06.15-.15.15h-2.13c-.24.02-.35.29-.36.48,0,.22.14.46.39.47l1.34.02c.66,0,1.08.59,1.07,1.23,0,.57-.35,1.13-.98,1.17Z"/>
  <path class="st1" d="M17.45,5.72c0-.49.32-.88.8-.93l1.7-.02c.05-.14.03-.27-.05-.38-.06-.09-.18-.15-.33-.15h-1.52c-.08,0-.13-.06-.13-.13v-.44c0-.05.05-.12.11-.12h1.73c.48.02.87.49.88.96v1.26c0,.45-.35.93-.83.93h-1.53c-.5,0-.85-.48-.84-.98ZM19.98,5.68v-.22s-1.58,0-1.58,0c-.17,0-.27.14-.26.28,0,.16.12.27.29.27h1.22c.18,0,.33-.14.33-.33Z"/>
  <path class="st1" d="M16.61,6.02c.09,0,.15.04.15.12v.44c0,.09-.05.14-.13.14h-1.77c-.46,0-.86-.39-.91-.87v-1.34c-.02-.49.39-.95.89-.95h1.37c.54,0,.88.54.85,1.06-.03.45-.37.86-.83.86h-1.6c-.07.22.04.52.28.52h1.71ZM16.2,4.78c.17,0,.21-.22.18-.32-.04-.13-.14-.22-.29-.21l-1.21.02c-.23,0-.31.32-.24.53l1.57-.02Z"/>
  <path class="st1" d="M29.28,6.62v-1.94c0-.22-.18-.43-.4-.43h-.96c-.2,0-.36.2-.37.4v1.95c0,.06-.06.12-.12.12h-.44c-.08,0-.13-.05-.13-.14V2.52c0-.09.04-.15.14-.15h.43c.06,0,.12.06.12.12v1.09s.27-.03.27-.03h1.23c.5.06.9.52.9,1.03v2c0,.09-.06.14-.13.14h-.41s-.12-.03-.12-.1Z"/>
  <path class="st1" d="M24.61,6.01h1.6c.06.01.11.07.11.13v.44c0,.08-.05.14-.13.14h-1.7c-.54-.02-.9-.57-.9-1.08v-1.02c0-.54.38-.99.92-1.06h1.67c.09,0,.14.06.14.15v.41c0,.08-.06.13-.14.13h-1.49c-.22,0-.43.16-.43.38v.95c0,.19.11.43.34.43Z"/>
  <path class="st1" d="M22.37,4.24c-.26,0-.46.19-.46.44v2c-.35.05-.68.08-.68-.11v-2.03c.02-.54.5-.99,1.03-.99h.84c.07,0,.13.05.13.12v.43c0,.08-.04.14-.12.14h-.73Z"/>
  <path class="st0" d="M35.29,6.56c0,.09-.05.15-.13.15h-2.91c-.24,0-.39-.21-.35-.44-.03-.17.03-.3.14-.42l2.28-2.5h-2.19c-.08-.01-.13-.05-.14-.13.02-.18-.03-.38.02-.54.03-.09.17-.05.24-.05h2.57c.14,0,.25,0,.34.1s.14.2.12.36c0,.11.02.24-.06.33l-2.37,2.58h2.31c.08,0,.13.06.13.14v.42Z"/>
  <path class="st0" d="M45.71,6.02c.11,0,.17.05.17.16v.4c0,.07-.04.14-.12.14h-1.83c-.47-.02-.87-.48-.87-.94v-1.23c0-.53.41-.99.94-.99h1.28c.55,0,.91.5.9,1.03s-.4.9-.92.9h-1.51c-.08.2.03.52.29.52h1.68ZM45.24,4.79c.18,0,.28-.15.27-.29-.01-.13-.12-.26-.28-.26l-1.21.02c-.24,0-.34.34-.26.54h1.49Z"/>
  <path class="st0" d="M37.96,6.72h-1.31c-.54-.02-.91-.55-.91-1.08v-1.05c0-.6.48-1.04,1.08-1.03h1.05c.55,0,.98.48.98,1.03v1.09c0,.52-.37.95-.89,1.05ZM37.79,6.01c.21,0,.38-.19.38-.38v-.95c0-.23-.15-.41-.37-.44h-.98c-.23,0-.4.21-.4.44v.92c0,.23.17.42.4.42h.97Z"/>
  <path class="st0" d="M41.38,4.25h-.87c-.22,0-.42.18-.42.4v1.96c0,.07-.06.11-.13.11h-.46c-.11-.01-.09-.15-.09-.24l.02-1.97c0-.57.52-.97,1.08-.96h1.05c.55.06.93.56.92,1.1v1.93c0,.09-.05.14-.14.14h-.41c-.08,0-.13-.06-.13-.14v-1.89c0-.24-.17-.44-.43-.44Z"/>
  <path class="st1" d="M5.11,5.64l-.7-.71c-.47.33-1.03.41-1.6.2-.44-.17-.82-.57-.98-1.08-.19-.6-.04-1.22.39-1.68s1.05-.62,1.65-.46c.51.13.91.52,1.09.93.24.55.18,1.11-.11,1.6l1.11,1.12c.06.06,0,.17-.05.22-.71.72-1.44,1.39-2.22,2.04-.14.12-.37.15-.53.01-.85-.75-1.71-1.48-2.46-2.34C.26,4.99.04,4.28,0,3.61c-.03-.61.13-1.17.4-1.7C.87.99,1.69.34,2.69.09c1.05-.26,2.14.04,2.95.75,1.21,1.06,1.57,2.83.76,4.27-.02.04-.09.06-.12.06-.04,0-.07-.03-.11-.06l-.25-.23s-.09-.12-.05-.19c.78-1.4,0-3.28-1.47-3.83-.9-.33-1.82-.2-2.57.33-.79.56-1.23,1.5-1.18,2.46.04.69.36,1.26.83,1.74.62.63,1.25,1.21,1.94,1.8.58-.51,1.12-1,1.68-1.56ZM4.45,3.55c0-.56-.46-1.02-1.02-1.02s-1.02.46-1.02,1.02.46,1.02,1.02,1.02,1.02-.46,1.02-1.02Z"/>
  <path class="st0" d="M6.83,5.67v1.92c0,.14-.07.19-.18.25l-3.11,1.65c-.12.06-.28-.03-.39-.08L.19,7.85C.09,7.8,0,7.75,0,7.63v-1.93c0-.09.11-.15.18-.12l.45.53v1.2s2.79,1.48,2.79,1.48l2.75-1.48v-1.21c.17-.14.29-.29.41-.46.02-.04.07-.06.1-.07.03,0,.13.03.13.09Z"/>
  <path class="st2" d="M4.45,3.55c0,.56-.46,1.02-1.02,1.02s-1.02-.46-1.02-1.02.46-1.02,1.02-1.02,1.02.46,1.02,1.02ZM3.82,3.54c0-.22-.17-.39-.39-.39s-.39.17-.39.39.17.39.39.39.39-.17.39-.39Z"/>
  <circle class="st3" cx="3.43" cy="3.54" r=".39"/>
</svg>