<?xml version="1.0" encoding="UTF-8"?>
<svg id="_레이어_1" data-name="레이어_1" xmlns="http://www.w3.org/2000/svg" version="1.1" viewBox="0 0 577.34 160.68">
  <!-- Generator: Adobe Illustrator 30.5.1, SVG Export Plug-In . SVG Version: 2.1.4 Build 3)  -->
  <defs>
    <style>
      .st0 {
        fill: #f6f6f6;
      }

      .st1 {
        fill: #040000;
      }

      .st2 {
        fill: #e73274;
      }

      .st3 {
        fill: #b6d459;
      }
    </style>
  </defs>
  <path class="st0" d="M20.46,4.07h-2.37s0,.38,0,.38c0,.22.21.37.43.37h2.19c.11,0,.18.09.18.19v.32c0,.07-.03.13-.07.16-.05.04-.11.04-.18.04l-2.31-.02c-.52,0-.95-.55-.95-1.06v-1.45c0-.55.48-1.03,1.04-1.04h2.26c.12-.01.21.07.21.19v.35c0,.09-.09.16-.18.16h-2.22c-.26,0-.43.23-.41.48,0,.08-.02.14.02.24h2.26c.11,0,.18.02.24.08.12.12.11.61-.14.61Z"/>
  <path class="st0" d="M14.54,5.53h-2.24c-.12,0-.2-.08-.2-.2v-.31c0-.12.08-.2.2-.2h2.39c.19-.02.28-.24.27-.39,0-.16-.11-.35-.3-.35h-1.66c-.58-.02-.94-.57-.91-1.12.02-.51.36-.99.89-.99l2.35-.02c.11,0,.23.06.23.17v.37c0,.13-.11.17-.23.17h-2.26c-.19,0-.28.21-.28.35,0,.16.1.34.28.35l1.64.02c.51,0,.88.47.92.95.05.66-.42,1.19-1.09,1.19Z"/>
  <path class="st3" d="M24.88,5.52h-1.16c-.71-.05-1.18-.69-1.17-1.38v-.97c.02-.63.57-1.16,1.2-1.2h1.11c.73.07,1.22.74,1.2,1.45l-.02.94c-.08.6-.54,1.12-1.17,1.16ZM24.76,4.81c.32,0,.59-.27.59-.58v-.97c0-.38-.36-.59-.72-.59h-.68c-.34,0-.7.22-.7.58v1.02c0,.26.26.53.52.53h.98Z"/>
  <path class="st0" d="M30.77,1.96h.32c.11,0,.21.07.21.19v2.12c0,.64-.52,1.21-1.17,1.24h-1.26c-.59-.06-1.06-.62-1.06-1.21v-2.16c0-.09.05-.19.14-.19h.37c.09,0,.18.09.18.19v2.05c0,.31.22.61.53.61h.89c.35,0,.66-.22.66-.58v-2.08c0-.1.06-.19.18-.19Z"/>
  <path class="st0" d="M33.66,5.53h-.42c-.08,0-.12-.11-.12-.19v-3.18c0-.09.07-.19.15-.19h.41c.08.02.15.09.15.19v3.21c0,.08-.07.16-.16.16Z"/>
  <g>
    <path class="st3" d="M24.45,10.49c-.08,0-.08-.26,0-.28l.72-.02c.1,0,.17.07.17.16v.46c0,.2-.2.36-.4.36h-.77c-.25,0-.45-.23-.45-.48v-.65c0-.27.22-.5.5-.5h1.05c.08.05.06.28-.01.32h-.95c-.15,0-.28.06-.28.24v.49c0,.12.08.24.2.24h.69c.12,0,.17-.3.08-.31l-.53-.04Z"/>
    <path class="st3" d="M32.59,10.52c-.09,0-.07.16-.04.22.03.05.08.11.17.11h1.05c.05.11.05.21,0,.33h-1.11c-.26-.01-.45-.25-.45-.5v-.64c0-.25.17-.48.43-.48h1.12c.05.1.05.21,0,.31h-1.06c-.08.02-.13.07-.16.11-.04.05-.05.22.02.22l1.05.02c.11,0,.12.26.03.29l-1.06.02Z"/>
    <path class="st3" d="M26.27,10.52c-.1,0-.08.16-.04.22.03.05.08.11.18.11h1.02c.05.08.06.24,0,.31h-1.1c-.26,0-.44-.25-.43-.49v-.7c0-.2.19-.42.41-.42h1.12c.07.05.07.25,0,.3l-1.07.03c-.09,0-.12.08-.14.12-.03.05-.03.2.04.2h1.02c.08,0,.1.1.11.15s0,.16-.08.16l-1.03.02Z"/>
    <path class="st3" d="M17.39,10.52c-.09,0-.07.16-.03.22.03.04.07.11.17.11h1.05c.04.11.04.21,0,.31h-.63s-.39.02-.39.02c-.32,0-.54-.23-.54-.54v-.64c0-.23.17-.44.41-.44h1.11c.07.05.06.2.02.3l-1.1.02c-.13,0-.19.29-.09.3l1.05.04c.11,0,.12.28.02.28l-1.05.03Z"/>
    <path class="st3" d="M29.6,11.04c0,.1-.11.14-.16.15-.09.02-.15-.02-.21-.09l-.89-1.01-.02,1.04c-.04.07-.22.09-.3.01v-1.46c0-.08.1-.12.14-.13.06,0,.15,0,.2.05l.91,1.04.02-1.02c0-.11.27-.11.3-.03v1.45Z"/>
    <path class="st3" d="M14.58,11.04c0,.1-.11.14-.16.15-.08.01-.16-.02-.22-.09l-.87-1.01-.03,1.04c0,.09-.29.09-.29,0v-1.45c-.02-.08.07-.13.12-.14.06-.01.15,0,.2.05l.91,1.04.04-1.05c.03-.07.25-.07.29,0v1.45Z"/>
    <path class="st3" d="M30.73,10.84h.93c.05.1.05.21,0,.33h-1c-.29-.01-.48-.3-.48-.57v-.53c0-.33.28-.53.6-.53h.88c.05.1.05.22,0,.32h-.88c-.17.02-.29.11-.3.29v.43c0,.14.08.28.25.28Z"/>
    <path class="st3" d="M15.96,11.14c-.07.06-.22.06-.29,0v-1.26s-.58-.03-.58-.03c-.09,0-.09-.29,0-.29l1.47-.02c.05.11.04.21,0,.32l-.59.02-.02,1.27Z"/>
    <path class="st3" d="M37.74,10.97c0,.15-.17.21-.27.21s-.29-.06-.29-.2v-1.23c0-.14.15-.21.26-.22.11,0,.29.05.29.19v1.25Z"/>
    <path class="st3" d="M20.52,10.87c.07.02.07.24,0,.3h-.81c-.35.02-.59-.22-.58-.57v-1c.02-.08.3-.08.3,0l.02,1.04c0,.12.08.21.2.21l.87.02Z"/>
    <path class="st3" d="M22.32,10.86c.07.05.06.23,0,.31h-.96c-.27,0-.45-.24-.45-.5v-1.09c.07-.07.25-.07.31,0v1.05c0,.13.1.21.23.21h.86Z"/>
    <path class="st3" d="M36.59,10.96c0,.16-.17.22-.28.23s-.28-.06-.28-.2v-.91c0-.14.15-.21.25-.21.11,0,.3.05.3.19v.91Z"/>
    <path class="st3" d="M23.12,11.13c-.04.07-.24.07-.31,0v-1.55c.05-.08.27-.07.31.01v1.53Z"/>
    <path class="st3" d="M12.43,11.14c-.11.07-.22.06-.33,0v-1.53c.03-.08.28-.09.31,0v1.55Z"/>
    <path class="st3" d="M39.01,10.76c0,.28-.13.45-.4.43-.21-.01-.35-.21-.31-.45.02-.11,0-.21.09-.28.07-.06.16-.1.26-.1.23,0,.35.16.35.4Z"/>
    <path class="st3" d="M35.47,10.76c0,.17-.02.3-.14.38-.11.07-.26.06-.37,0-.13-.08-.14-.21-.14-.36-.01-.21.09-.4.29-.41.22-.01.37.15.36.39Z"/>
  </g>
  <path class="st1" d="M24.76,4.81h-.98c-.26,0-.51-.28-.51-.54v-1.02c0-.36.35-.59.69-.59h.68c.36,0,.72.22.72.6v.97c0,.31-.27.58-.59.58Z"/>
  <g>
    <path class="st3" d="M.56,4.06h8.56s.55,0,.55,0v1.08c-.14.22-.3.44-.55.53-.26.11-.53.1-.82.11-.44.01-.86-.1-1.15-.45-.32.4-.76.46-1.22.46s-.87-.1-1.18-.47c-.34.41-.76.47-1.22.47s-.89-.08-1.2-.47c-.26.3-.59.46-.96.45h-.68c-.31-.07-.58-.23-.69-.52v-1.18s.55-.01.55-.01ZM1.64,5.17c.24-.1.37-.32.35-.56H.57s-.01.41-.01.41c0,.08.04.17.13.19.3.07.65.09.95-.04ZM4.05,5.17c.24-.11.38-.33.35-.56h-1.72c-.01.64.87.78,1.37.56ZM6.82,4.61h-1.72c0,.31.2.54.48.61.54.13,1.21-.01,1.23-.61ZM8.78,5.2c.29-.08.39-.34.33-.6h-1.63c0,.31.21.54.48.61s.56.06.82-.01Z"/>
    <path class="st0" d="M9.12,5.68c.24-.09.41-.31.55-.53v4.96c-.01.53-.49,1.09-1.04,1.09H1.1c-.54,0-1.08-.48-1.08-1.02l-.02-4.08c.22.11.36.17.56.19v3.78c0,.32.28.58.61.58h7.34c.39,0,.62-.31.62-.67v-3.64s0-.65,0-.65Z"/>
    <path class="st3" d="M5.2,9.85h-.72c-.07,0-.11-.05-.12-.11v-2.57c0-.11.09-.18.19-.18h.6c.09,0,.17.08.17.18v2.54c0,.06-.04.14-.12.14Z"/>
    <path class="st0" d="M.56,4.06H0s0-1.03,0-1.03c0-.69.61-1.12,1.28-1.12h1.95c.09.21.18.37.3.57H1.16c-.32.02-.59.27-.59.58v.99Z"/>
    <path class="st0" d="M9.67,4.07h-.55s0-1.03,0-1.03c0-.34-.34-.54-.67-.54h-2.3s.3-.56.3-.56h2c.67-.02,1.23.45,1.23,1.14v.99Z"/>
    <path class="st0" d="M6.71,9.85h-.63c-.08,0-.14-.05-.14-.14v-1.48c0-.11.07-.19.18-.19h.55c.11,0,.19.08.19.19v1.48c-.01.08-.06.14-.14.14Z"/>
    <path class="st0" d="M3.62,9.85h-.65c-.08,0-.13-.07-.13-.14v-.98c0-.09.07-.15.16-.15h.57c.1,0,.17.06.19.15v.99c-.01.06-.06.12-.14.12Z"/>
    <path class="st1" d="M4.05,5.17c-.5.22-1.38.08-1.37-.55h1.72c.03.23-.12.45-.35.55Z"/>
    <path class="st1" d="M6.82,4.61c-.02.6-.69.74-1.23.61-.28-.07-.49-.3-.48-.61h1.72Z"/>
    <path class="st1" d="M8.78,5.2c-.27.08-.56.08-.82.01-.27-.07-.48-.3-.48-.6h1.63c.07.24-.03.51-.33.59Z"/>
    <path class="st1" d="M1.64,5.17c-.3.13-.65.11-.95.04-.09-.02-.14-.11-.13-.19v-.41s1.43,0,1.43,0c.02.23-.11.45-.35.56Z"/>
    <g>
      <path class="st3" d="M5.02,3.23c-.04.07-.12.1-.17.1s-.13-.02-.16-.08l-.88-1.34c-.26-.39-.26-.91-.02-1.3C4.14.01,4.89-.17,5.46.17s.79,1.1.44,1.72l-.88,1.35ZM5.46,1.23c0-.34-.28-.62-.62-.62s-.62.28-.62.62.28.62.62.62.62-.28.62-.62Z"/>
      <circle class="st1" cx="4.84" cy="1.23" r=".62"/>
    </g>
  </g>
  <g>
    <path class="st0" d="M37.75,7.75c-.07.01-.04.22,0,.27.05.06.13.1.23.1h1.19c.07.11.09.25.01.38h-1.31c-.29,0-.55-.26-.54-.54v-.87c0-.27.28-.48.54-.48h1.31c.04.12.05.26,0,.37l-1.35.03c-.14,0-.16.25-.11.36l1.27.02c.09,0,.1.1.11.15,0,.06,0,.2-.08.2l-1.28.04Z"/>
    <path class="st0" d="M28.68,7.86c.03.34-.19.63-.52.63h-1.38c-.04-.13-.05-.25,0-.38h1.38c.1,0,.14-.11.15-.18,0-.06-.02-.19-.12-.19l-1.01-.03c-.27,0-.43-.29-.45-.52-.01-.25.13-.57.42-.58l1.44-.02c.08.12.08.27,0,.38h-1.36c-.11.01-.15.14-.14.21.01.1.09.17.21.17h.85c.28,0,.49.22.52.51Z"/>
    <path class="st0" d="M36.06,8.37l-.66-.59h-.42s-.03.66-.03.66c-.04.08-.25.06-.34.01v-1.86s1.47,0,1.47,0c.31,0,.5.28.52.57.01.37-.23.64-.64.62l.53.43c.06.05.09.12.06.2-.04.1-.25.16-.48-.05ZM36.05,7.4c.12,0,.17-.15.16-.24s-.07-.19-.18-.19h-1.07s0,.44,0,.44h1.09Z"/>
    <path class="st0" d="M16.27,8.49h-.86c-.3,0-.56-.32-.56-.61v-.68c0-.3.25-.6.56-.6h.93c.28,0,.51.28.54.55v.72c0,.32-.28.62-.62.62ZM16.23,8.11c.18,0,.3-.14.31-.31v-.5c0-.17-.11-.34-.29-.34h-.78c-.15.01-.25.19-.25.34v.5c0,.18.16.31.34.31h.67Z"/>
    <path class="st0" d="M33.23,8.5h-.89c-.33-.07-.57-.34-.57-.69v-.57c0-.34.27-.61.6-.65h.86c.32.04.59.31.58.64v.65c0,.32-.27.56-.59.62ZM33.1,8.12c.2,0,.36-.13.36-.32v-.52c0-.17-.14-.31-.31-.31h-.66c-.2,0-.34.14-.34.35v.45c0,.18.13.34.31.34h.65Z"/>
    <path class="st0" d="M23.16,8.47v-.97c0-.05.04-.09.1-.09h1.3c.13,0,.21-.08.23-.18.02-.12-.05-.25-.19-.25h-1.41c-.04-.13-.04-.25,0-.38h1.47c.32,0,.51.31.51.61,0,.28-.17.55-.47.56l-1.17.02v.67c-.12.05-.23.05-.36,0Z"/>
    <path class="st0" d="M12.44,8.45c-.04.08-.27.06-.33,0v-1.05s1.39,0,1.39,0c.13,0,.2-.07.22-.18.02-.09-.03-.24-.15-.24l-1.44-.02c-.04-.13-.04-.24,0-.37h1.5c.3.01.49.33.48.61,0,.34-.24.58-.57.58h-1.06s-.03.67-.03.67Z"/>
    <path class="st0" d="M18.05,8.46c-.11.05-.23.05-.35,0v-1.07s1.45-.01,1.45-.01c.11,0,.17-.12.17-.2,0-.09-.05-.21-.17-.21h-1.42c-.06-.13-.06-.26,0-.39h1.47c.28,0,.45.28.47.54.02.19-.02.35-.14.48-.11.12-.28.17-.46.17h-1.02s-.02.68-.02.68Z"/>
    <path class="st0" d="M21.99,6.63c.12-.06.26-.06.39,0v1.26c-.01.35-.34.6-.68.6h-.73c-.29-.06-.51-.35-.51-.65v-1.2c.08-.08.26-.07.36,0v1.17c.01.17.14.3.31.3h.57c.16,0,.29-.13.29-.3v-1.18Z"/>
    <path class="st0" d="M30.39,8.45c-.12.06-.23.05-.36.02v-1.49s-.7-.02-.7-.02c-.05-.12-.05-.24,0-.37h1.77c.07.08.08.31-.01.34l-.69.03v1.48Z"/>
    <path class="st1" d="M36.05,7.4h-1.09s0-.43,0-.43h1.07c.11,0,.17.11.18.2s-.04.24-.16.24Z"/>
    <path class="st1" d="M16.23,8.11h-.67c-.18,0-.33-.12-.34-.3v-.5c0-.14.09-.32.24-.33h.78c.18-.01.3.16.29.33v.5c0,.17-.13.31-.31.31Z"/>
    <path class="st1" d="M33.1,8.12h-.65c-.18-.01-.31-.17-.31-.35v-.45c0-.2.14-.35.34-.35h.66c.17,0,.31.14.31.31v.52c0,.19-.16.32-.36.32Z"/>
  </g>
  <path class="st1" d="M556.79,152.87h-2.59s0,.42,0,.42c0,.25.23.4.48.4h2.39c.12,0,.2.1.2.21v.35c0,.08-.03.14-.07.18-.05.04-.12.04-.2.04l-2.53-.03c-.57,0-1.04-.6-1.04-1.15v-1.59c0-.6.53-1.13,1.13-1.13h2.47c.13-.01.23.07.23.2v.39c0,.1-.1.17-.2.17h-2.43c-.28,0-.47.26-.45.52,0,.09-.02.15.02.26h2.47c.12,0,.2.02.26.09.13.13.12.67-.15.67Z"/>
  <path class="st1" d="M550.32,154.47h-2.45c-.13,0-.21-.09-.21-.22v-.34c0-.13.08-.22.21-.22l2.62-.02c.21,0,.31-.24.3-.41,0-.17-.13-.38-.33-.38l-1.81-.02c-.63,0-1.03-.6-1-1.21.03-.55.39-1.08.98-1.09l2.57-.02c.12,0,.25.07.25.19v.41c0,.14-.13.19-.25.19h-2.47c-.21,0-.31.22-.31.38,0,.17.1.38.31.38l1.79.03c.56,0,.97.51,1.01,1.04.06.72-.46,1.3-1.2,1.3Z"/>
  <path class="st3" d="M561.63,154.45h-1.27c-.78-.05-1.29-.75-1.28-1.51v-1.06c.02-.69.62-1.27,1.32-1.32h1.21c.79.08,1.33.81,1.32,1.59l-.02,1.03c-.09.65-.59,1.22-1.28,1.27ZM561.5,153.68c.35,0,.65-.3.65-.63v-1.06c0-.42-.39-.65-.79-.65h-.74c-.37,0-.76.24-.76.63v1.12c0,.28.29.58.57.58h1.08Z"/>
  <path class="st1" d="M568.08,150.56h.35c.12,0,.23.08.23.21v2.32c0,.7-.57,1.33-1.28,1.36h-1.38c-.65-.07-1.15-.68-1.16-1.32v-2.36c0-.1.06-.21.15-.21h.41c.1,0,.2.1.2.21v2.24c0,.34.24.66.58.66h.97c.38.01.72-.24.73-.64v-2.27c.01-.1.07-.21.19-.21Z"/>
  <path class="st1" d="M571.23,154.46h-.46c-.09,0-.13-.12-.13-.21v-3.47c0-.1.07-.21.16-.21h.45c.09.02.16.1.16.21v3.51c0,.09-.08.18-.17.18Z"/>
  <path class="st3" d="M561.16,159.9c-.08,0-.09-.28,0-.31l.78-.02c.11,0,.19.08.19.18v.5c-.01.22-.22.39-.44.39h-.84c-.27,0-.49-.26-.49-.52v-.71c0-.29.24-.54.55-.54h1.15c.08.06.07.31-.02.35h-1.03c-.16,0-.31.07-.31.26v.54c0,.13.08.26.22.26h.76c.13,0,.18-.33.08-.34l-.58-.05Z"/>
  <path class="st3" d="M570.07,159.93c-.1,0-.08.17-.04.24.03.05.09.12.19.12h1.15c.05.12.05.23,0,.36h-1.21c-.29-.01-.49-.28-.49-.55v-.7c0-.27.18-.53.47-.53h1.22c.06.11.05.23,0,.34l-1.16.02c-.09,0-.14.06-.18.1-.04.05-.05.24.02.24l1.15.02c.12,0,.13.29.03.32l-1.16.03Z"/>
  <path class="st3" d="M563.15,159.92c-.1,0-.09.18-.05.25.03.06.09.12.19.12h1.12c.06.09.07.26,0,.34h-1.2c-.28,0-.48-.27-.47-.54v-.77c0-.22.21-.46.45-.46h1.22c.08.06.08.27,0,.33l-1.17.03c-.1,0-.13.08-.15.13-.03.05-.03.22.04.22h1.12c.08.01.11.11.12.16s0,.17-.09.18l-1.12.02Z"/>
  <path class="st3" d="M553.44,159.93c-.09,0-.08.17-.04.24.03.05.08.12.18.12h1.15c.05.12.05.23,0,.34h-.69s-.42.03-.42.03c-.35,0-.6-.25-.59-.59v-.7c0-.25.19-.48.45-.48h1.22c.07.06.07.22.03.33l-1.2.02c-.14,0-.2.32-.1.33l1.14.04c.12,0,.13.31.02.31l-1.15.04Z"/>
  <path class="st3" d="M566.8,160.49c0,.1-.12.15-.17.16-.1.02-.17-.03-.23-.1l-.97-1.11-.03,1.14c-.05.08-.24.1-.33.01v-1.6c0-.09.1-.13.16-.14.07,0,.17,0,.22.06l1,1.14.02-1.11c0-.12.29-.12.33-.03v1.58Z"/>
  <path class="st3" d="M550.37,160.49c0,.11-.12.15-.17.16-.09.01-.18-.02-.24-.1l-.95-1.1-.04,1.13c0,.1-.31.1-.31,0l-.02-1.58c0-.09.1-.14.15-.15.07-.02.16,0,.22.05l1,1.13.04-1.14c.04-.08.27-.07.32,0v1.58Z"/>
  <path class="st3" d="M568.03,160.28h1.02c.06.11.06.23,0,.36h-1.09c-.32-.01-.53-.32-.52-.63v-.59c0-.36.31-.58.66-.58h.96c.06.11.05.24,0,.34h-.96c-.19.02-.32.12-.32.31v.47c0,.15.09.3.27.3Z"/>
  <path class="st3" d="M551.87,160.6c-.07.07-.24.06-.32,0v-1.38s-.63-.04-.63-.04c-.1,0-.09-.32,0-.32l1.61-.02c.05.12.05.23,0,.35l-.65.02-.02,1.39Z"/>
  <path class="st3" d="M575.7,160.42c0,.17-.18.23-.3.23s-.31-.06-.31-.22v-1.35c0-.15.17-.23.28-.24.12,0,.32.05.32.21v1.37Z"/>
  <path class="st3" d="M556.85,160.3c.08.02.07.26,0,.33h-.88c-.38.02-.64-.24-.64-.62l.02-1.1c0-.09.31-.09.31,0l.02,1.14c0,.13.09.23.21.23l.95.02Z"/>
  <path class="st3" d="M558.83,160.3c.07.05.07.25.01.34h-1.05c-.29,0-.5-.27-.49-.55v-1.19c.08-.07.27-.07.34,0v1.14c.01.15.11.23.25.23l.94.02Z"/>
  <path class="st3" d="M574.44,160.41c0,.17-.18.24-.3.25s-.31-.07-.31-.22v-.99c0-.15.16-.23.28-.23.12-.01.33.05.33.21v1Z"/>
  <path class="st3" d="M559.7,160.6c-.04.08-.26.08-.34,0v-1.7c.06-.09.29-.07.34.01v1.68Z"/>
  <path class="st3" d="M548,160.6c-.12.08-.24.07-.36,0v-1.68c.04-.09.31-.09.34,0v1.69Z"/>
  <path class="st2" d="M577.09,160.19c0,.3-.14.49-.43.47-.23-.01-.39-.23-.34-.49.02-.12,0-.22.1-.31.07-.06.17-.11.29-.11.26,0,.38.18.39.44Z"/>
  <path class="st3" d="M573.22,160.19c0,.19-.02.33-.16.42-.12.07-.29.07-.4,0-.14-.08-.15-.23-.16-.4-.01-.23.1-.44.32-.45.24-.02.41.16.39.43Z"/>
  <path class="st3" d="M535.02,152.86h9.37s.6,0,.6,0v1.18c-.15.24-.33.48-.6.58-.28.12-.58.11-.89.12-.49.02-.94-.11-1.26-.5-.35.43-.84.5-1.33.5s-.95-.1-1.29-.51c-.37.44-.84.51-1.33.51s-.97-.09-1.31-.51c-.28.33-.64.5-1.05.5h-.75c-.33-.08-.63-.25-.75-.57v-1.3s.61-.01.61-.01ZM536.21,154.07c.26-.11.4-.35.38-.61h-1.55s-.01.45-.01.45c0,.09.05.18.15.2.33.08.71.1,1.04-.04ZM538.84,154.07c.26-.12.42-.36.39-.61h-1.89c-.01.7.95.85,1.5.61ZM541.87,153.46h-1.88c0,.33.22.59.53.66.59.15,1.33-.01,1.35-.66ZM544.02,154.11c.32-.09.43-.38.36-.65h-1.78c0,.34.22.59.52.67s.61.07.9-.01Z"/>
  <path class="st1" d="M544.38,154.63c.27-.09.45-.34.6-.58v5.43c-.01.58-.54,1.2-1.14,1.2h-8.24c-.59,0-1.18-.53-1.18-1.12l-.02-4.47c.24.12.39.19.61.21v4.13c.01.35.31.63.66.63h8.03c.42,0,.68-.34.68-.74v-3.98s0-.71,0-.71Z"/>
  <path class="st3" d="M540.1,159.19h-.79c-.07,0-.12-.05-.14-.12v-2.81c0-.12.1-.19.21-.19h.66c.1,0,.18.09.19.2v2.78c0,.07-.05.15-.13.15Z"/>
  <path class="st1" d="M535.02,152.86h-.61s0-1.12,0-1.12c0-.76.67-1.23,1.4-1.22h2.13c.1.23.2.4.33.62h-2.6c-.35.02-.65.3-.65.64v1.08Z"/>
  <path class="st1" d="M544.98,152.87h-.6s-.01-1.13-.01-1.13c0-.38-.37-.59-.73-.59h-2.52s.33-.61.33-.61h2.19c.73-.02,1.34.49,1.34,1.24v1.09Z"/>
  <path class="st1" d="M541.75,159.2h-.69c-.09,0-.16-.06-.16-.15v-1.62c0-.13.07-.21.2-.21h.6c.12,0,.2.09.2.21v1.62c-.01.09-.07.15-.16.15Z"/>
  <path class="st1" d="M538.36,159.2h-.71c-.08,0-.14-.07-.14-.15v-1.07c0-.1.08-.16.17-.16h.62c.11,0,.19.06.21.17v1.09c-.01.06-.06.13-.15.13Z"/>
  <g>
    <path class="st3" d="M539.9,151.95c-.05.07-.13.11-.19.11s-.14-.02-.18-.08l-.96-1.47c-.28-.43-.28-.99-.02-1.43.39-.65,1.21-.85,1.84-.48s.87,1.2.48,1.88l-.96,1.47ZM540.38,149.76c0-.37-.3-.68-.68-.68s-.68.3-.68.68.3.68.68.68.68-.3.68-.68Z"/>
    <circle class="st1" cx="539.7" cy="149.76" r=".68"/>
  </g>
  <path class="st1" d="M575.71,156.89c-.08.02-.04.24,0,.29.05.06.14.1.26.1h1.31c.07.12.09.28.01.41h-1.43c-.31,0-.6-.28-.6-.59v-.96c0-.3.31-.53.59-.53h1.44c.05.14.05.28,0,.41l-1.47.03c-.15,0-.18.28-.12.39l1.39.02c.09,0,.11.11.12.16,0,.06,0,.22-.09.22l-1.4.04Z"/>
  <path class="st1" d="M565.79,157.02c.03.37-.21.69-.57.69h-1.51c-.05-.14-.05-.27,0-.41h1.51c.11-.01.16-.12.16-.2,0-.07-.03-.2-.13-.21l-1.1-.03c-.3,0-.47-.32-.49-.57-.01-.28.14-.63.46-.63l1.57-.02c.09.13.08.29,0,.42h-1.49c-.12.01-.16.15-.15.23.02.11.1.19.23.19h.93c.3,0,.54.24.57.56Z"/>
  <path class="st1" d="M573.86,157.57l-.73-.64h-.46s-.04.73-.04.73c-.04.09-.27.07-.37.01v-2.03s1.6,0,1.6,0c.34,0,.55.31.56.63.02.41-.25.7-.7.68l.58.47c.07.06.09.14.07.22-.04.11-.27.17-.52-.05ZM573.85,156.51c.14,0,.19-.17.18-.26s-.07-.21-.19-.21h-1.17s0,.48,0,.48h1.19Z"/>
  <path class="st1" d="M552.21,157.7h-.94c-.33,0-.61-.35-.61-.66v-.74c0-.33.28-.66.62-.66h1.02c.3,0,.56.3.6.61v.78c0,.35-.31.68-.68.68ZM552.16,157.29c.2,0,.33-.15.33-.34v-.54c0-.19-.12-.37-.32-.37h-.86c-.16.01-.27.21-.27.37v.54c0,.2.18.34.37.34h.74Z"/>
  <path class="st1" d="M570.77,157.71h-.97c-.37-.07-.62-.37-.62-.75v-.62c0-.38.29-.66.66-.71h.94c.35.05.64.34.64.7v.71c0,.35-.3.62-.65.67ZM570.62,157.3c.21,0,.39-.14.39-.35v-.57c0-.19-.16-.34-.34-.34h-.72c-.22,0-.38.16-.37.38v.5c0,.2.14.37.34.37h.71Z"/>
  <path class="st1" d="M559.75,157.68v-1.07c0-.06.05-.1.11-.1h1.42c.14,0,.23-.09.25-.2.02-.13-.06-.27-.21-.27h-1.55c-.04-.15-.04-.27,0-.41h1.61c.35,0,.56.34.55.67,0,.31-.19.6-.51.61l-1.27.03v.74c-.13.06-.26.05-.4,0Z"/>
  <path class="st1" d="M548.02,157.66c-.04.09-.29.07-.36,0v-1.15s1.52,0,1.52,0c.14,0,.22-.08.24-.19.02-.1-.03-.26-.17-.26l-1.58-.02c-.04-.14-.04-.26,0-.41h1.64c.33.01.53.36.53.67,0,.37-.26.63-.62.63h-1.16s-.04.73-.04.73Z"/>
  <path class="st1" d="M554.15,157.67c-.12.05-.25.05-.38,0v-1.17s1.59-.01,1.59-.01c.12,0,.18-.13.18-.22,0-.1-.06-.23-.18-.23h-1.55c-.07-.14-.07-.28,0-.42h1.61c.3.01.49.31.52.59.02.21-.02.38-.15.53-.12.13-.3.19-.5.19h-1.11s-.02.75-.02.75Z"/>
  <path class="st1" d="M558.47,155.67c.13-.07.28-.06.42,0v1.38c-.01.38-.38.66-.75.65h-.8c-.32-.07-.56-.39-.56-.71v-1.32c.08-.09.29-.08.39,0v1.28c.01.18.16.33.34.33h.62c.18,0,.32-.15.32-.33v-1.29Z"/>
  <path class="st1" d="M567.65,157.67c-.13.07-.26.06-.39.02v-1.63s-.76-.02-.76-.02c-.05-.13-.06-.27,0-.4h1.93c.08.09.09.34-.01.38l-.76.04v1.62Z"/>
</svg>