<?xml version="1.0" encoding="UTF-8"?>
<svg id="_레이어_1" data-name="레이어_1" xmlns="http://www.w3.org/2000/svg" version="1.1" viewBox="0 0 31.23 37.25">
  <!-- Generator: Adobe Illustrator 30.5.1, SVG Export Plug-In . SVG Version: 2.1.4 Build 3)  -->
  <defs>
    <style>
      .st0 {
        fill: #b3d35f;
      }

      .st1 {
        fill: #040000;
      }

      .st2 {
        fill: #101010;
      }

      .st3 {
        fill: #e73274;
      }
    </style>
  </defs>
  <path class="st1" d="M2.62,16.74v4.44c.02,1.19.71,2.2,1.53,3.02l6.39,6.35,3.57,3.52c.8.78,2.01.68,2.93.1l3.92-3.88,6.55-6.51c.65-.84,1.09-1.76,1.09-2.82v-4.23c1.26-.58,2.21-1.72,2.53-3.1v-.16s.05-.07.1-.01l-.02,7.47c0,1.7-.68,3.48-1.91,4.7l-10.49,10.39c-1.66,1.64-4.73,1.64-6.38,0L2.23,25.92C.93,24.63.03,22.91.02,21.05L0,13.3c.24,1.51,1.21,2.81,2.62,3.44Z"/>
  <circle class="st3" cx="15.59" cy="24.7" r="3.48"/>
  <path class="st0" d="M2.61,10.95h26.02s2.6.03,2.6.03v2.48c-.04-.05-.11-.02-.1.01v.16c-.3,1.38-1.25,2.52-2.5,3.1-2.14.9-4.48.34-5.68-1.71-.78,1.26-1.98,2.03-3.41,2.11-1.61.09-3.07-.65-3.91-2.09-.74,1.2-1.88,1.96-3.25,2.08-1.7.15-3.24-.65-4.08-2.13-1.21,2.07-3.67,2.64-5.68,1.75C1.21,16.11.24,14.81,0,13.3v-2.37s2.61.02,2.61.02ZM6.44,12.47h-3.7c-.11,1.12.74,2.05,1.85,2.05s1.95-.94,1.85-2.05ZM13.84,12.47h-3.7c-.1,1.2.81,2.09,1.92,2.05,1.04-.03,1.85-.96,1.78-2.05ZM21.14,12.48h-3.71c-.05.7.23,1.3.73,1.67.55.4,1.23.49,1.87.22.73-.31,1.16-1.1,1.11-1.89ZM28.5,12.48h-3.69c-.13,1.12.74,2.04,1.84,2.05s1.94-.96,1.85-2.05Z"/>
  <path class="st2" d="M31.23,10.98l-2.6-.03v-2.28c0-1.54-1.21-3-2.82-3H5.5c-1.54,0-2.78,1.24-2.88,2.75v2.53s-2.62-.02-2.62-.02v-2.24C0,5.73,2.2,3.23,5.16,3l2.38-.04.04-1.94C7.66.37,8.27-.03,8.87,0c.56.03,1.16.47,1.17,1.08l.03,1.9h11.24s.05-1.86.05-1.86c.02-.69.66-1.16,1.31-1.13s1.18.54,1.18,1.2v1.77s2.34.03,2.34.03c2.81.26,5.03,2.65,5.03,5.48v2.49Z"/>
  <circle class="st2" cx="22.61" cy="7.8" r=".92"/>
  <path class="st2" d="M9.72,7.8c0,.51-.41.92-.92.92s-.92-.41-.92-.92.41-.92.92-.92.92.41.92.92Z"/>
</svg>