<?xml version="1.0" encoding="UTF-8"?>
<svg id="_레이어_1" data-name="레이어_1" xmlns="http://www.w3.org/2000/svg" version="1.1" viewBox="0 0 42.99 9.91">
  <!-- Generator: Adobe Illustrator 30.5.1, SVG Export Plug-In . SVG Version: 2.1.4 Build 3)  -->
  <defs>
    <style>
      .st0 {
        fill: #040000;
      }

      .st1 {
        fill: #fff;
      }

      .st2 {
        fill: #e73274;
      }

      .st3 {
        fill: #b3d35c;
      }
    </style>
  </defs>
  <path class="st0" d="M20.03,4.91h-1.53c-.71-.04-1.29-.62-1.29-1.32v-1.02c0-.64.7-1.24,1.44-1.24h1.36c.77.06,1.32.71,1.32,1.46v.76c0,.7-.56,1.29-1.3,1.34ZM19.97,4.23c.38-.08.66-.36.65-.74v-.83c0-.32-.33-.61-.66-.62h-1.35c-.35,0-.7.27-.71.62v.75c-.01.45.3.81.75.81h1.32Z"/>
  <path class="st0" d="M22.32,4.93v-1.78c0-.06.05-.12.12-.12h2.32c.31,0,.53-.19.53-.5,0-.27-.18-.49-.46-.49h-2.51s0-.69,0-.69h2.54c.68,0,1.12.53,1.12,1.18s-.43,1.16-1.08,1.16h-1.87s0,1.24,0,1.24h-.7Z"/>
  <path class="st3" d="M31.59,4.93v-1.9s2.53,0,2.53,0c.28,0,.44-.24.44-.5,0-.29-.18-.49-.47-.49h-2.49s0-.69,0-.69h2.53c.69,0,1.15.5,1.14,1.18,0,.59-.39,1.15-1.02,1.15l-1.95.02v1.23s-.7.01-.7.01Z"/>
  <path class="st0" d="M12.59,4.93v-1.8s.04-.11.1-.11h2.39c.29,0,.46-.23.46-.5,0-.25-.15-.48-.42-.48h-2.52s0-.7,0-.7h2.52c.69,0,1.13.52,1.13,1.18s-.43,1.16-1.09,1.16h-1.85s0,1.24,0,1.24h-.69Z"/>
  <path class="st3" d="M29.85,1.35h.71s-.02,2.35-.02,2.35c0,.68-.57,1.18-1.24,1.22h-1.21c-.68-.05-1.21-.57-1.21-1.25V1.35s.7,0,.7,0v2.25c0,.35.27.62.61.62h1c.36,0,.62-.27.65-.62V1.35Z"/>
  <path class="st0" d="M30.54,9.49c-.37,0-.59-.17-.75-.46l-1.08-1.95c-.04-.07-.11-.09-.18-.08s-.13.07-.13.17v2.3s-.62,0-.62,0v-2.47c.01-.36.36-.59.69-.62.39-.03.64.17.81.48l1.06,1.93c.04.07.09.09.16.09.06,0,.15-.05.15-.14v-2.34s.61,0,.61,0v2.35c0,.41-.31.71-.72.72Z"/>
  <path class="st0" d="M36.97,8.24c-.2,0-.24.23-.22.36.02.15.13.29.31.29h1.98s0,.59,0,.59l-2.14-.02c-.52,0-.85-.51-.79-.99.03-.23.11-.42.35-.54-.42-.23-.45-.78-.19-1.14.15-.21.42-.38.72-.38h2.04s0,.58,0,.58h-2.01c-.17,0-.26.17-.28.31-.02.13.05.35.23.35l2.02.02v.54s-2.03.02-2.03.02Z"/>
  <path class="st0" d="M24.93,8.88l2.01.02v.58s-2.12-.02-2.12-.02c-.5,0-.82-.46-.8-.93.02-.27.12-.48.37-.6-.25-.13-.35-.31-.36-.56-.03-.48.3-.91.81-.95l2.09-.02v.58s-2,.01-2,.01c-.17,0-.26.16-.28.29-.02.14.04.36.22.36l2.01.02v.54s-2.03.02-2.03.02c-.16,0-.22.22-.21.34,0,.11.08.3.26.31Z"/>
  <path class="st0" d="M32.75,7.66v1.23s1.31,0,1.31,0c.33,0,.6-.26.6-.58v-.7c0-.3-.25-.58-.57-.59l-1.94-.02v-.59s1.94,0,1.94,0c.63,0,1.14.47,1.19,1.09v.89c-.06.61-.53,1.08-1.15,1.08h-1.99s0-1.81,0-1.81h.6Z"/>
  <path class="st0" d="M40.49,8.41v1.07s-.61,0-.61,0v-1.63s2.14-.02,2.14-.02c.22,0,.32-.24.32-.41,0-.19-.13-.39-.35-.39h-2.09s-.01-.6-.01-.6h2.17c.55.02.9.49.89,1.01,0,.43-.23.79-.65.92l.7,1.13h-.69s-.64-1.05-.64-1.05h-1.17Z"/>
  <path class="st0" d="M13.12,8.23c0,.37.27.66.64.66h1.79s0,.59,0,.59h-1.92c-.59-.02-1.07-.53-1.12-1.12v-.84c.06-.63.59-1.1,1.22-1.1h1.82s0,.58,0,.58h-1.71c-.4,0-.71.26-.71.67v.56Z"/>
  <path class="st0" d="M18.27,7.11c-.04-.09-.1-.12-.18-.11s-.13.05-.17.14l-1.11,2.34h-.67s1.26-2.66,1.26-2.66c.13-.28.38-.42.68-.43s.57.12.72.39l1.27,2.69-.66.02-1.13-2.37Z"/>
  <path class="st0" d="M23.39,8.89v.58s-1.78,0-1.78,0c-.54,0-.97-.39-.98-.93v-2.13s.61,0,.61,0v2.03c0,.26.19.43.44.43h1.7Z"/>
  <path class="st0" d="M0,3.86c.05.03.07.08.08.14.09.34.34.57.59.78v3.53c0,.5.41.91.91.91h6.76c.55.01,1.03-.34,1.03-.91v-3.55c.27-.17.48-.45.58-.76.02-.07.01-.13.08-.13l-.02,4.55c0,.91-.81,1.49-1.67,1.49H1.71c-.87,0-1.69-.59-1.69-1.5V3.86Z"/>
  <path class="st0" d="M10.04,2.99h-.65s-.02-.7-.02-.7c-.07-.42-.35-.74-.78-.8h-.76c.02.16-.03.29-.14.38s-.26.09-.37.02c-.13-.08-.16-.24-.14-.41H2.88c.01.17,0,.31-.13.39-.11.08-.26.08-.39,0s-.14-.24-.16-.39h-.65c-.47,0-.85.38-.89.85v.65s-.66,0-.66,0v-.68C.05,1.45.77.8,1.63.81h.58s.02-.55.02-.55c0-.18.22-.28.37-.25.18.04.28.17.29.36l.02.44h4.26s0-.43,0-.43c0-.2.12-.35.31-.37.15-.01.33.11.34.29l.02.51h.76c.74.09,1.34.65,1.42,1.39v.8Z"/>
  <path class="st1" d="M9.39,2.99H.66s0-.65,0-.65c.04-.47.42-.86.89-.86h.65c.01.15.03.32.16.39s.28.07.39,0c.12-.09.14-.23.13-.39h4.29c-.02.18,0,.33.14.41.11.07.26.06.37-.02s.16-.21.14-.39h.76c.43.08.72.39.78.81l.02.7Z"/>
  <path class="st2" d="M5.05,6.59c-.19,0-.31-.03-.41-.14-.08-.1-.13-.28-.06-.43.11-.21.46-.26.67-.16.19.09.27.27.22.45-.05.16-.23.28-.42.28Z"/>
  <circle class="st0" cx="2.53" cy="7.87" r=".38"/>
  <circle class="st0" cx="5.85" cy="7.87" r=".38"/>
  <circle class="st0" cx="2.53" cy="6.18" r=".38"/>
  <circle class="st0" cx="7.52" cy="7.87" r=".38"/>
  <circle class="st0" cx="4.18" cy="7.87" r=".38"/>
  <circle class="st0" cx="7.52" cy="6.18" r=".38"/>
  <g>
    <path class="st3" d="M.66,2.99h8.73s.65,0,.65,0v.87c-.06,0-.05.06-.07.13-.1.31-.32.59-.58.76-.66.43-1.54.27-1.97-.44-.27.43-.71.68-1.2.68s-.93-.24-1.2-.68c-.28.45-.72.69-1.2.68s-.93-.24-1.19-.68c-.37.62-1.1.83-1.73.57-.08-.03-.18-.06-.23-.1-.26-.21-.5-.44-.59-.78-.02-.06-.03-.11-.08-.14v-.87s.66,0,.66,0ZM2.13,3.65H.76c.04.39.34.65.71.64.34-.01.63-.26.66-.64ZM4.53,3.66h-1.38c.04.39.35.65.71.64.34,0,.65-.26.67-.64ZM6.92,3.65h-1.39c.04.39.34.64.7.64s.65-.26.69-.64ZM9.29,3.66h-1.36c.03.39.34.65.7.63s.66-.27.67-.63Z"/>
    <path class="st0" d="M4.53,3.66c-.01.38-.33.63-.67.64-.36,0-.67-.25-.71-.64h1.38Z"/>
    <path class="st0" d="M6.92,3.65c-.04.38-.35.64-.69.64s-.66-.25-.7-.64h1.39Z"/>
    <path class="st0" d="M9.29,3.66c-.01.37-.33.62-.67.63s-.67-.24-.7-.63h1.36Z"/>
    <path class="st0" d="M2.13,3.65c-.03.38-.32.63-.66.64-.37.01-.67-.25-.71-.64h1.37Z"/>
  </g>
</svg>