<?xml version="1.0" encoding="UTF-8"?>
<svg id="_레이어_1" data-name="레이어_1" xmlns="http://www.w3.org/2000/svg" version="1.1" viewBox="0 0 45.87 8.97">
  <!-- Generator: Adobe Illustrator 30.5.1, SVG Export Plug-In . SVG Version: 2.1.4 Build 3)  -->
  <defs>
    <style>
      .st0 {
        fill: #040000;
      }

      .st1 {
        fill: #b8d565;
      }
    </style>
  </defs>
  <g>
    <path class="st1" d="M29.71,6.55h-3.18s-.01-.66-.01-.66c0-.09.04-.16.14-.16h2.84c.28,0,.47-.21.47-.46,0-.27-.19-.46-.47-.46l-1.91-.02c-.67-.05-1.1-.66-1.07-1.3s.49-1.19,1.15-1.19h3.05c.03.28.04.52,0,.8l-2.97.02c-.24,0-.42.23-.42.43,0,.23.16.44.41.44h1.72c.76,0,1.34.59,1.3,1.35-.02.61-.44,1.09-1.05,1.22Z"/>
    <path class="st0" d="M20.31,5.12c-.07.77-.75,1.39-1.5,1.42h-1.57c-.73-.05-1.39-.68-1.45-1.41v-1.41c.07-.85.86-1.45,1.69-1.45h1.21c.82,0,1.57.64,1.62,1.48v1.36ZM18.67,5.73c.44,0,.84-.33.84-.76v-1.08c0-.42-.37-.76-.79-.76h-1.37c-.47,0-.8.42-.79.88v.96c.01.47.45.77.91.77h1.19Z"/>
    <path class="st1" d="M39.74,6.53h-1.51c-.8,0-1.44-.71-1.49-1.5v-1.19c0-.86.72-1.56,1.57-1.56h1.17c.87,0,1.67.61,1.73,1.49v1.26c-.05.77-.67,1.45-1.47,1.5ZM39.7,5.72c.42-.08.71-.42.71-.84v-1c0-.48-.43-.78-.89-.78h-1.25c-.39.02-.73.38-.73.78v1.09c0,.41.36.75.77.75h1.39Z"/>
    <path class="st0" d="M21.43,6.54v-2.19s2.81-.01,2.81-.01c.34,0,.52-.32.52-.61,0-.38-.23-.62-.6-.62h-2.73s0-.82,0-.82h2.85c.8,0,1.31.72,1.29,1.48-.02.7-.47,1.33-1.21,1.38l-2.13.02v1.37s-.8,0-.8,0Z"/>
    <path class="st0" d="M10.73,4.47c0-.07.06-.13.11-.13h2.75c.33-.02.51-.37.49-.66-.02-.31-.21-.57-.53-.57h-2.68c-.11,0-.15-.09-.15-.19l.02-.65,2.88.02c.74,0,1.24.68,1.26,1.39.02.75-.49,1.46-1.26,1.47h-2.08s-.03,1.39-.03,1.39c-.27.03-.52.03-.79,0v-2.06Z"/>
    <path class="st1" d="M31.76,4.55c0-.07,0-.12.03-.15.03-.04.08-.05.15-.05h2.64c.36-.01.56-.38.53-.7-.03-.3-.21-.54-.53-.54h-2.71c-.09,0-.11-.12-.11-.19l.03-.64h2.79c.81,0,1.35.67,1.34,1.43,0,.71-.41,1.27-1.13,1.43h-2.22s-.03,1.4-.03,1.4h-.78s0-2,0-2Z"/>
    <path class="st1" d="M44.21,6.52c-.27.05-.52.02-.79.02v-3.41s-1.64-.03-1.64-.03c-.01-.28-.03-.54.01-.82h4.07s0,.82,0,.82h-1.64s-.01,3.42-.01,3.42Z"/>
  </g>
  <path class="st0" d="M0,3.11c.06.02.06.08.09.13.13.25.34.42.57.52v1.07c0,.27.14.48.33.67l2.55,2.57c.26.26.64.27.89.01l1.59-1.61,1.07-1.09c.19-.19.24-.45.24-.71v-.93c.3-.13.5-.41.64-.67v1.77c0,.38-.14.75-.41,1.03l-2.61,2.63c-.46.46-1.22.67-1.73.17L.64,6.1C.32,5.79.02,5.44.02,4.96l-.02-1.85Z"/>
  <path class="st1" d="M.66,2.56h6.68s.64.02.64.02v.5c-.14.27-.35.54-.65.67-.51.22-1.17.14-1.52-.37-.22.31-.54.47-.89.48-.37,0-.69-.13-.93-.45-.1.15-.19.24-.33.31-.53.28-1.18.14-1.54-.34-.35.51-.92.58-1.45.38-.23-.11-.44-.28-.57-.52-.03-.05-.03-.11-.09-.13v-.56s.66,0,.66,0ZM1.61,2.81h-.86c.01.3.23.43.47.42.21-.01.4-.19.38-.42ZM3.5,2.81h-.84c.01.25.2.41.42.41.24,0,.45-.17.42-.41ZM5.32,2.82h-.87c.02.27.22.41.43.41s.42-.14.44-.41ZM7.23,2.81h-.88c0,.27.22.43.45.42s.44-.18.43-.42Z"/>
  <path class="st0" d="M7.98,2.58l-.64-.02v-.41c0-.37-.23-.75-.64-.75H1.38c-.37,0-.7.23-.71.6v.55s-.66,0-.66,0v-.6C.08,1.29.57.8,1.23.75h.68s.02-.54.02-.54c0-.16.2-.23.35-.2.12.02.26.12.26.27v.46s2.92,0,2.92,0l.02-.5c0-.17.18-.25.33-.24.13,0,.29.08.29.25v.49s.65,0,.65,0c.67,0,1.23.58,1.24,1.25v.58Z"/>
  <circle class="st1" cx="3.99" cy="5.75" r=".82"/>
  <path class="st0" d="M2.44,1.78c.01.12-.08.17-.15.19s-.18.02-.21-.07c-.04-.1.02-.23.1-.28s.25.02.26.15Z"/>
  <path class="st0" d="M5.61,1.86c-.03-.08.09-.23.17-.24.09-.01.17.08.19.13.04.1-.03.19-.12.22-.08.03-.2.02-.25-.11Z"/>
</svg>