<?xml version="1.0" encoding="UTF-8"?>
<svg id="_레이어_1" data-name="레이어_1" xmlns="http://www.w3.org/2000/svg" version="1.1" viewBox="0 0 42.51 8.62">
  <!-- Generator: Adobe Illustrator 30.5.1, SVG Export Plug-In . SVG Version: 2.1.4 Build 3)  -->
  <defs>
    <style>
      .st0 {
        fill: #040000;
      }

      .st1 {
        fill: #060203;
      }

      .st2 {
        fill: #b4d45f;
      }
    </style>
  </defs>
  <path class="st0" d="M4.91,3.67l.66-.56c-.12-.05-.17-.14-.17-.23,0-.13.08-.17.19-.22l1.04-.48c.17-.08.34-.14.45.02.11.14.08.34-.09.44l-1.17,1.03h-.92Z"/>
  <path class="st0" d="M1.71,3.11l.66.56h-.91S.21,2.53.21,2.53c-.08-.13-.04-.27.04-.36.11-.12.26-.09.4-.01.37.2.75.35,1.13.53.08.04.13.11.13.19,0,.1-.04.15-.19.23Z"/>
  <circle class="st2" cx="3.66" cy="2.79" r=".67"/>
  <path class="st2" d="M3.92,1.09c0,.16-.03.29-.15.34-.11.04-.35.02-.35-.14V.17C3.42.04,3.59,0,3.68,0c.11,0,.23.08.23.21v.88Z"/>
  <path class="st2" d="M5.12,1.7c-.09.15-.26.16-.36.09-.14-.1-.13-.25-.05-.38l.44-.72c.08-.13.24-.16.36-.09s.14.24.06.37l-.44.72Z"/>
  <path class="st2" d="M2.59,1.39c.09.15.08.32-.05.4-.14.08-.29.03-.38-.11l-.43-.75c-.06-.11-.02-.25.07-.31s.27-.08.34.04l.45.74Z"/>
  <path class="st0" d="M1.32,5.88v1.8c-.01.17.11.3.28.3h4.09c.17,0,.29-.11.31-.27v-1.82c.19.07.4.11.62.09l-.03,1.9c0,.38-.33.72-.73.73l-4.26.02c-.43,0-.87-.25-.87-.71v-1.92c.19,0,.39-.05.59-.11Z"/>
  <g>
    <path class="st2" d="M6.62,5.98c-.22.01-.43-.02-.62-.09-.08-.03-.16-.07-.25-.14-.4.37-1,.37-1.41,0-.39.38-1,.38-1.37,0-.41.38-1.03.39-1.41,0l-.25.14c-.2.06-.41.12-.6.11-.27-.01-.66-.19-.71-.44-.03-.13.02-.22.1-.32l.72-.93c.11-.15.22-.19.41-.19h4.92c.13,0,.22.06.29.15l.75.98c.12.16.14.34-.02.5-.14.14-.34.23-.55.24ZM1.39,5.33l.39-.62h-.55s-.56.62-.56.62h.72ZM2.71,5.27l.2-.55h-.59s-.39.62-.39.62c.25.19.58.14.78-.07ZM4.07,5.28l-.15-.57h-.53s-.13.58-.13.58c.24.24.59.22.81-.01ZM5.34,5.33l-.37-.62h-.58s.21.58.21.58c.2.18.52.25.74.04ZM6.62,5.33l-.56-.62h-.54c.15.23.29.41.41.63h.69Z"/>
    <path class="st1" d="M2.71,5.27c-.2.21-.53.26-.78.07l.39-.63h.59s-.2.56-.2.56Z"/>
    <path class="st1" d="M4.07,5.28c-.22.23-.57.25-.81.01l.13-.58h.53s.15.57.15.57Z"/>
    <path class="st1" d="M5.34,5.33c-.22.21-.54.14-.74-.04l-.21-.57h.58s.37.62.37.62Z"/>
    <polygon class="st1" points="1.39 5.33 .67 5.34 1.23 4.71 1.78 4.72 1.39 5.33"/>
    <path class="st1" d="M6.62,5.33h-.69c-.12-.21-.26-.39-.41-.62h.54s.56.62.56.62Z"/>
  </g>
  <g>
    <g>
      <path class="st0" d="M17.17,6.82h-1.41c-.74.01-1.36-.59-1.36-1.32v-.96c0-.76.66-1.35,1.43-1.35h1.22c.77,0,1.39.6,1.43,1.36v.77c0,.76-.51,1.45-1.31,1.51ZM17.1,6.13c.37-.06.65-.32.65-.68v-.82c0-.38-.29-.72-.69-.72h-1.32c-.33,0-.63.3-.63.62v.99c0,.34.32.57.64.62h1.34Z"/>
      <path class="st0" d="M9.89,6.69v-1.5c0-.12.1-.25.21-.25h.78s1.59,0,1.59,0c.28,0,.48-.22.51-.47s-.14-.55-.44-.56h-2.44c-.1-.01-.21-.03-.21-.15v-.42c0-.08.05-.17.15-.17l2.57.02c.68,0,1.12.64,1.1,1.3s-.53,1.15-1.17,1.15h-1.91s-.02,1.04-.02,1.04c0,.08-.05.13-.13.13h-.41c-.07,0-.17-.04-.17-.14Z"/>
      <path class="st0" d="M19.28,6.71v-1.5c0-.19.17-.27.34-.27h2.17c.31,0,.54-.17.57-.47s-.17-.57-.5-.57h-2.4c-.1,0-.17-.05-.17-.16v-.4c0-.11.07-.16.17-.16h2.37c.76,0,1.3.59,1.25,1.35-.04.59-.49,1.1-1.11,1.11h-1.97s0,1.05,0,1.05c0,.07-.05.13-.13.14h-.44c-.05,0-.13-.04-.13-.12Z"/>
    </g>
    <path class="st2" d="M32.48,6.82h-1.31c-.68,0-1.24-.57-1.29-1.26v-1.14c.05-.68.61-1.24,1.29-1.24h1.38c.67.06,1.2.61,1.24,1.27v1.11c-.05.68-.61,1.25-1.31,1.25ZM32.44,6.12c.38,0,.65-.33.66-.68v-.85c0-.36-.28-.69-.65-.69h-1.18c-.39,0-.71.3-.71.69v.85c0,.36.3.68.67.68h1.21Z"/>
    <path class="st2" d="M36.92,6.82h-1.28c-.75,0-1.32-.64-1.32-1.38v-.99c0-.66.59-1.21,1.26-1.26h1.4c.73.05,1.26.68,1.26,1.39v.89c0,.72-.58,1.34-1.33,1.35ZM36.88,6.12c.38,0,.62-.3.67-.65v-.91c0-.35-.3-.66-.65-.66h-1.12c-.37,0-.75.25-.75.63v.94c0,.36.32.66.68.66h1.17Z"/>
    <path class="st2" d="M42.46,6.54c.09.08.04.24-.05.28h-.66s-1.74-1.51-1.74-1.51h-.55s0,1.35,0,1.35c0,.1-.07.2-.19.2h-.34c-.12-.02-.16-.09-.16-.2v-3.31c0-.09.05-.16.13-.16h.4c.07,0,.15.06.15.13v1.28c.2.03.37.02.57,0l1.72-1.41h.61c.08,0,.13.06.15.12s0,.14-.05.2l-1.77,1.47,1.8,1.57Z"/>
    <path class="st2" d="M29.49,6.28v.41c0,.09-.1.14-.18.14l-.44.02h-1.5c-.53-.02-.95-.44-.95-.97v-2.53c-.01-.1.05-.16.15-.16h.34c.11,0,.18.06.18.17v2.39c0,.22.18.38.39.38h1.86c.08,0,.16.06.15.15Z"/>
    <path class="st2" d="M25.48,5.29h-1.52c-.08,0-.18-.04-.18-.13v-.37c0-.1.05-.18.15-.18h1.58c.09,0,.16.07.16.16v.33c0,.11-.08.19-.19.19Z"/>
  </g>
</svg>