<?xml version="1.0" encoding="UTF-8"?>
<svg id="_레이어_1" data-name="레이어_1" xmlns="http://www.w3.org/2000/svg" version="1.1" viewBox="0 0 42.39 8.88">
  <!-- Generator: Adobe Illustrator 30.5.1, SVG Export Plug-In . SVG Version: 2.1.4 Build 3)  -->
  <defs>
    <style>
      .st0 {
        fill: #040000;
      }

      .st1 {
        fill: #b4d239;
      }
    </style>
  </defs>
  <path class="st1" d="M28.21,7.92l-2.46.02c-.2,0-.34-.15-.35-.33s.12-.35.32-.35h2.43c.3-.02.51-.32.51-.59,0-.29-.21-.59-.53-.59l-1.8-.02c-.43,0-.79-.31-.98-.69s-.19-.81.03-1.2c.17-.3.51-.62.93-.62h2.5c.19-.01.31.16.32.31s-.1.34-.29.34l-2.47.02c-.3,0-.49.3-.49.57s.2.58.5.58h1.73c.3.01.57.13.79.33.37.34.53.86.36,1.36-.14.41-.53.84-1.05.84Z"/>
  <path class="st1" d="M38.61,5.73c0,1.22-.99,2.2-2.2,2.2s-2.2-.99-2.2-2.2.99-2.2,2.2-2.2,2.2.99,2.2,2.2ZM37.96,5.73c0-.85-.69-1.55-1.55-1.55s-1.55.69-1.55,1.55.69,1.55,1.55,1.55,1.55-.69,1.55-1.55Z"/>
  <g>
    <path class="st0" d="M17.74,5.74c0,1.22-.99,2.21-2.21,2.21s-2.21-.99-2.21-2.21.99-2.21,2.21-2.21,2.21.99,2.21,2.21ZM17.08,5.74c0-.86-.69-1.55-1.55-1.55s-1.55.69-1.55,1.55.69,1.55,1.55,1.55,1.55-.69,1.55-1.55Z"/>
    <path class="st0" d="M18.31,7.65v-1.66c0-.27.29-.53.57-.53h2.16c.35,0,.63-.21.67-.57.03-.29-.2-.65-.54-.65l-2.55-.02c-.18,0-.31-.21-.3-.35.02-.2.17-.33.37-.33l2.54.02c.65,0,1.12.64,1.14,1.26s-.45,1.23-1.09,1.29l-2.12.03c-.11,0-.17.08-.17.19v1.31c0,.16-.17.3-.31.3-.15,0-.36-.1-.36-.28Z"/>
    <path class="st0" d="M8.95,7.65v-1.67c0-.27.28-.52.55-.52l2.28-.02c.33,0,.57-.34.55-.63-.02-.35-.29-.59-.64-.59h-2.46c-.17,0-.28-.2-.28-.33s.1-.35.27-.34h2.63c.65.02,1.13.66,1.14,1.26s-.45,1.26-1.11,1.31l-2.08.02c-.11,0-.19.07-.19.18v1.28c0,.17-.14.31-.3.33-.14.02-.37-.09-.37-.28Z"/>
  </g>
  <path class="st1" d="M29.89,7.62v-1.62c.01-.31.33-.54.63-.54l2.23-.02c.35,0,.57-.38.53-.67-.04-.34-.33-.54-.67-.54h-2.4c-.17,0-.3-.19-.3-.33,0-.16.13-.35.32-.35h2.57c.67.02,1.13.65,1.14,1.27s-.45,1.24-1.11,1.29l-2.05.03c-.11,0-.2.06-.2.19v1.23c0,.2-.1.36-.31.38-.16.02-.36-.1-.36-.32Z"/>
  <path class="st1" d="M40.78,7.62c0,.19-.18.31-.33.31s-.32-.12-.32-.3v-3.41s-1.19,0-1.19,0c-.2,0-.38-.1-.4-.3-.01-.17.1-.38.31-.38h3.24c.2,0,.31.21.3.38-.02.2-.19.3-.39.3h-1.21s0,3.4,0,3.4Z"/>
  <path class="st1" d="M24.3,6.08h-1.12c-.17,0-.29-.17-.29-.32s.09-.34.26-.34h1.16c.18,0,.28.17.29.32s-.11.34-.31.34Z"/>
  <path class="st0" d="M12.97,1.09l-.31.93s-.06.07-.09.07c-.05,0-.09-.02-.11-.08l-.21-.69-.24.72c-.02.07-.13.07-.17,0l-.33-1c-.02-.06.06-.1.09-.1.05,0,.09.03.11.09l.22.67.21-.68c.02-.06.07-.09.11-.09.06,0,.09.05.11.1l.2.64.23-.68c.02-.05.07-.07.11-.06.06,0,.1.07.07.13Z"/>
  <path class="st0" d="M19.92,1.43c.05.35-.19.65-.52.68s-.63-.23-.62-.59v-.98s.09-.07.12-.07c.05,0,.1.04.1.11v.53c.16-.16.37-.2.58-.12.16.06.31.22.35.44ZM19.7,1.39c-.06-.18-.21-.27-.37-.25-.15.01-.27.12-.32.27-.05.17,0,.36.15.45.13.07.3.08.43-.03.11-.09.17-.27.11-.44Z"/>
  <path class="st0" d="M16.65,1.6c-.03-.25.08-.47.27-.58.2-.12.44-.09.64.06l.02-.5c0-.06.05-.1.1-.11.04,0,.12.02.12.08v1.06c0,.29-.29.49-.56.5-.29,0-.54-.19-.58-.51ZM17.59,1.46c-.04-.2-.2-.32-.38-.31s-.32.14-.35.33c-.04.24.14.46.37.45s.4-.21.35-.46Z"/>
  <path class="st0" d="M9.27,1.54v.49c-.01.05-.07.06-.1.07-.03,0-.12-.01-.12-.07V.59c0-.06.05-.11.11-.11h.45c.33,0,.52.3.48.62-.03.24-.23.43-.48.44h-.34ZM9.62,1.33c.18-.03.25-.17.26-.31s-.06-.27-.21-.31c-.13-.03-.26-.02-.41-.02v.64c.11.01.23.02.36,0Z"/>
  <path class="st0" d="M15.57,1.6c-.01.16.12.25.22.28.29.11.45-.16.54-.04.11.14-.33.4-.71.19-.2-.11-.31-.35-.28-.59.04-.32.3-.52.63-.49s.54.34.44.64h-.84ZM16.25,1.43c-.04-.21-.18-.3-.35-.3s-.32.12-.33.3h.68Z"/>
  <path class="st0" d="M13.34,1.6c-.03.15.1.25.19.28.27.11.42-.11.51-.06.04.02.07.06.06.11-.03.13-.43.28-.73.1-.19-.12-.29-.33-.27-.57.03-.34.32-.56.67-.5.29.05.48.35.38.63h-.82ZM13.99,1.43c-.04-.21-.19-.3-.36-.29-.16,0-.29.12-.32.3h.68Z"/>
  <path class="st0" d="M11.38,1.53c0,.32-.26.59-.59.59s-.59-.26-.59-.59.26-.59.59-.59.59.26.59.59ZM11.17,1.46c-.04-.24-.26-.36-.46-.3s-.3.24-.26.46c.03.2.24.33.43.29.2-.04.34-.22.3-.45Z"/>
  <path class="st0" d="M21.11,1.1l-.63,1.42c-.03.07-.09.09-.15.07s-.07-.1-.04-.16l.19-.42-.44-.89c-.03-.06-.02-.13.05-.16.04-.02.11,0,.13.06l.36.76.35-.76s.07-.06.11-.05c.05.01.1.07.07.14Z"/>
  <path class="st0" d="M14.7,1.3l-.03.73c0,.05-.06.07-.09.07s-.12-.02-.12-.07v-1.01c0-.05.08-.07.12-.06.04,0,.09.04.12.12.21-.21.58-.14.55,0-.04.17-.48-.05-.55.23Z"/>
  <path class="st1" d="M4.82.87c0-.11.03-.19.1-.24.08-.06.17-.05.27-.01.95.42,1.66,1.21,1.97,2.2.47,1.47-.07,3.04-1.28,3.97l-1.95,1.98c-.11.12-.3.14-.42.02l-2.04-2.02C.58,6.14.06,5.15,0,4.06c-.03-.52.08-1.01.27-1.49.36-.91,1.05-1.62,1.97-1.97.08-.03.16-.01.22.03.07.05.1.13.11.22,0,.15-.08.22-.2.27-.68.27-1.19.78-1.51,1.43-.67,1.34-.27,2.98.97,3.84l1.87,1.83,1.86-1.85c1.11-.83,1.52-2.28,1.03-3.58-.29-.75-.85-1.35-1.6-1.66-.1-.04-.16-.13-.17-.25Z"/>
  <path class="st0" d="M4.85,2.81v-.76c.1-.05.18.02.26.09.75.6,1.03,1.58.71,2.48-.4,1.13-1.58,1.76-2.74,1.44-.58-.16-1.04-.51-1.35-1.03-.55-.92-.37-2.1.44-2.81.12-.1.23-.19.39-.23v.77c-.64.59-.65,1.59-.04,2.21s1.56.66,2.21.11c.69-.59.77-1.62.12-2.29Z"/>
  <path class="st1" d="M4.08,3.19c0,.21-.18.33-.35.34-.14.01-.36-.12-.36-.3V.4c-.01-.21.11-.37.31-.4.18-.02.4.12.4.34v2.85Z"/>
</svg>